<?xml version="1.0" standalone="no"?>
<!DOCTYPE svg PUBLIC "-//W3C//DTD SVG 20010904//EN"
 "http://www.w3.org/TR/2001/REC-SVG-20010904/DTD/svg10.dtd">
<svg version="1.0" xmlns="http://www.w3.org/2000/svg"
 width="512.000000pt" height="512.000000pt" viewBox="0 0 512.000000 512.000000"
 preserveAspectRatio="xMidYMid meet">

<g transform="translate(0.000000,512.000000) scale(0.100000,-0.100000)"
fill="#000000" stroke="none">
<path d="M2404 5109 c-788 -43 -1524 -465 -1968 -1129 -369 -552 -506 -1195
-395 -1860 67 -399 245 -801 508 -1140 80 -104 309 -336 411 -416 373 -294
802 -476 1270 -540 169 -23 491 -23 660 0 980 134 1785 799 2095 1731 131 395
163 844 89 1255 -14 81 -18 88 -66 138 -37 38 -53 50 -59 40 -6 -9 -10 -6 -16
10 -5 13 -13 22 -18 20 -4 -2 -21 33 -36 77 -15 44 -28 75 -28 69 -1 -6 4 -26
10 -43 17 -48 -5 -65 -26 -20 -8 19 -13 25 -10 14 13 -44 -15 3 -38 65 -49
128 -48 125 -57 110 -5 -9 -3 -25 6 -43 17 -31 9 -54 -7 -24 -6 9 -15 14 -21
11 -6 -4 -8 -3 -4 4 3 5 3 12 -1 14 -5 1 -26 40 -47 85 -26 53 -57 99 -88 130
l-49 48 56 -110 c72 -140 33 -98 -54 59 -35 63 -73 125 -85 138 -11 12 -20 26
-18 31 1 5 -1 6 -6 3 -9 -5 -80 66 -82 82 -3 14 -22 32 -30 27 -5 -3 -24 14
-44 37 l-36 41 5 -104 c15 -296 25 -732 25 -1046 l0 -352 -26 -20 c-25 -20
-39 -21 -250 -21 -220 0 -223 0 -250 24 l-28 23 -7 564 c-4 310 -10 668 -15
795 l-7 230 28 22 c27 21 34 22 199 16 l171 -5 -85 82 c-74 70 -77 75 -25 34
33 -27 78 -65 101 -84 22 -20 6 -3 -35 37 -42 40 -76 76 -76 81 0 11 -14 26
-23 26 -15 1 -91 78 -86 87 3 5 2 7 -3 6 -5 -2 -19 7 -31 18 -13 12 -75 50
-138 85 -157 87 -199 126 -59 54 l110 -56 -48 49 c-31 31 -77 62 -130 88 -45
21 -84 42 -85 47 -2 4 -9 4 -14 1 -7 -4 -8 -2 -4 4 3 6 -2 15 -11 21 -30 16
-7 24 24 7 18 -9 34 -11 43 -6 15 9 18 8 -110 57 -62 23 -109 51 -65 38 11 -3
5 2 -14 10 -45 21 -28 43 20 26 17 -6 37 -11 43 -10 6 0 -24 13 -66 27 -43 15
-78 32 -79 37 0 6 -10 14 -22 18 -16 6 -18 10 -9 16 10 6 -2 22 -40 59 -50 48
-57 52 -138 66 -191 35 -397 47 -606 35z m1872 -1166 l37 -48 -41 40 c-37 34
-51 55 -38 55 2 0 21 -21 42 -47z m-760 -416 l24 -28 1 -332 c1 -183 3 -345 4
-362 2 -16 0 -221 -3 -454 -5 -421 -5 -424 -28 -450 l-22 -26 -212 -3 c-228
-4 -259 1 -279 44 -8 18 -11 249 -11 814 l0 789 27 21 c26 21 35 21 251 18
l224 -3 24 -28z m-1409 -299 l23 -21 0 -799 c0 -785 0 -798 -20 -818 -19 -19
-33 -20 -244 -20 -294 0 -271 -18 -280 212 -11 290 -8 1406 5 1429 5 11 20 24
32 29 12 5 121 9 241 9 212 1 220 0 243 -21z m710 -464 l25 -25 -3 -794 -4
-793 -24 -26 -24 -26 -223 0 c-218 0 -223 1 -250 23 l-26 23 -6 796 -5 796 26
26 26 26 231 0 231 0 26 -26z m-1420 -148 l28 -24 2 -384 c2 -210 7 -564 13
-785 5 -221 7 -409 3 -418 -13 -36 -52 -40 -259 -32 -109 4 -209 9 -221 12
-51 12 -56 39 -70 324 -7 146 -15 491 -19 766 -8 532 -7 536 39 555 12 5 120
9 239 9 215 1 217 1 245 -23z"/>
<path d="M3980 4275 c13 -14 26 -25 28 -25 3 0 -5 11 -18 25 -13 14 -26 25
-28 25 -3 0 5 -11 18 -25z"/>
<path d="M4270 3985 c13 -14 26 -25 28 -25 3 0 -5 11 -18 25 -13 14 -26 25
-28 25 -3 0 5 -11 18 -25z"/>
</g>
</svg>
